<?xml version="1.0" encoding="UTF-8" standalone="no"?>
<!-- Created with Inkscape (http://www.inkscape.org/) -->

<svg
   xmlns:dc="http://purl.org/dc/elements/1.1/"
   xmlns:cc="http://creativecommons.org/ns#"
   xmlns:rdf="http://www.w3.org/1999/02/22-rdf-syntax-ns#"
   xmlns:svg="http://www.w3.org/2000/svg"
   xmlns="http://www.w3.org/2000/svg"
   xmlns:sodipodi="http://sodipodi.sourceforge.net/DTD/sodipodi-0.dtd"
   xmlns:inkscape="http://www.inkscape.org/namespaces/inkscape"
   id="svg2"
   version="1.1"
   inkscape:version="0.91 r13725"
   width="1008.75"
   height="438.75"
   viewBox="0 0 1008.75 438.75"
   sodipodi:docname="miptlogo.svg">
  <metadata
     id="metadata8">
    <rdf:RDF>
      <cc:Work
         rdf:about="">
        <dc:format>image/svg+xml</dc:format>
        <dc:type
           rdf:resource="http://purl.org/dc/dcmitype/StillImage" />
        <dc:title></dc:title>
      </cc:Work>
    </rdf:RDF>
  </metadata>
  <defs
     id="defs6" />
  <sodipodi:namedview
     pagecolor="#ffffff"
     bordercolor="#666666"
     borderopacity="1"
     objecttolerance="10"
     gridtolerance="10"
     guidetolerance="10"
     inkscape:pageopacity="0"
     inkscape:pageshadow="2"
     inkscape:window-width="1366"
     inkscape:window-height="706"
     id="namedview4"
     showgrid="false"
     inkscape:zoom="2.8284271"
     inkscape:cx="724.73962"
     inkscape:cy="278.64376"
     inkscape:window-x="0"
     inkscape:window-y="27"
     inkscape:window-maximized="1"
     inkscape:current-layer="svg2" />
  <path
     style="fill:#000000"
     d="m 209.17456,372.88346 c -5.31671,-2.31544 -12.56063,-11.16887 -15.44407,-18.87554 -4.41668,-11.80462 -7.20817,-28.08152 -17.04007,-99.35877 -13.7628,-99.77475 -15.86396,-114.41148 -19.46943,-135.625 -7.67807,-45.175446 -14.83201,-70.624992 -19.85288,-70.624992 -2.52495,0 -7.57206,9.939926 -12.37667,24.374996 -8.41063,25.2691 -19.0267,70.305286 -33.885205,143.749996 -13.429243,66.38001 -15.079574,73.51369 -18.841438,81.44353 -4.486635,9.45763 -14.793345,19.31319 -23.1889,22.17384 -6.114825,2.08353 -31.014178,2.91353 -32.1028,1.07012 -0.841445,-1.42485 1.84297,-16.96976 3.237896,-18.75 0.768766,-0.98112 4.438032,-1.5625 9.861405,-1.5625 10.864198,0 16.297334,-2.24091 20.21826,-8.3391 4.330601,-6.73533 4.853795,-8.76105 13.988473,-54.16089 C 94.86803,86.370644 105.54497,48.641568 122.45457,32.824618 c 14.1689,-13.25335 28.78819,-9.49493 37.9534,9.7573 10.0321,21.073196 16.78879,54.951406 29.45582,147.692232 19.29092,141.23738 22.70284,160.7538 27.81012,159.07605 0.86917,-0.28551 3.35865,-4.69444 5.53222,-9.79759 9.54427,-22.40834 12.17572,-27.53752 16.31353,-31.7981 2.41759,-2.48931 5.77412,-5.05012 7.45895,-5.6907 1.86349,-0.70848 127.65046,-1.16467 321.14619,-1.16467 272.71887,0 318.17941,0.25162 318.7599,1.76432 0.37236,0.97038 -0.0884,5.611 -1.02392,10.3125 l -1.70097,8.54818 -313.6071,0.31496 c -283.94113,0.28517 -313.81378,0.50202 -315.79205,2.29232 -1.20173,1.08755 -4.00851,6.57082 -6.2373,12.18504 -11.77677,29.66528 -18.80273,38.40703 -30.76958,38.28376 -2.61227,-0.0269 -6.47292,-0.79945 -8.57922,-1.71676 z"
     id="path4225" />
  <path
     style="fill:#000000"
     d="m 908.15429,331.14199 c -0.34235,-0.55394 0.76087,-8.28831 2.45161,-17.1875 4.23899,-22.3119 4.09385,-21.80535 6.24749,-21.80535 2.21415,0 71.86366,20.92119 72.8143,21.87182 0.3455,0.34551 0.30945,0.94692 -0.0801,1.33648 -0.66056,0.66056 -77.20847,16.7917 -79.68253,16.7917 -0.62055,0 -1.40839,-0.45322 -1.75074,-1.00715 z"
     id="path4223" />
  <path
     style="fill:#000000"
     d="m 275.45185,275.58665 c -0.49133,-1.28189 7.87113,-43.86333 26.57366,-135.3125 l 2.30078,-11.25 41.83895,0 41.83896,0 0.86085,18.125 c 0.47346,9.96874 1.23764,27.57339 1.69816,39.12145 0.51948,13.02631 1.30998,20.83888 2.08249,20.58138 0.68484,-0.22829 8.74299,-17.83293 17.90699,-39.12145 l 16.66182,-38.70638 40.93997,-0.32988 c 22.51698,-0.18143 41.35868,0.0999 41.87044,0.625 0.98695,1.01283 -27.55948,143.60594 -29.28199,146.26738 -1.51526,2.3412 -48.18378,2.23592 -49.08427,-0.11075 -0.55599,-1.44886 3.52369,-22.54628 17.53627,-90.68618 1.75134,-8.51642 3.18081,-16.95392 3.17657,-18.75001 l -0.007,-3.2656 -1.99875,3.75 c -1.09931,2.0625 -12.36866,26.52419 -25.04299,54.35929 -12.67433,27.8351 -23.87815,51.88197 -24.89737,53.4375 -1.81125,2.76432 -2.36166,2.82822 -24.36354,2.82822 -17.00776,0 -22.65886,-0.38686 -23.11771,-1.58261 -0.33403,-0.87042 -1.58199,-25.90784 -2.77328,-55.63866 -1.19127,-29.73084 -2.68158,-54.19055 -3.3118,-54.35491 -1.68457,-0.43933 -2.09847,1.33582 -13.33726,57.20118 -5.67066,28.1875 -10.84752,51.95313 -11.50415,52.8125 -0.87669,1.14739 -7.14115,1.5625 -23.58004,1.5625 -16.7562,0 -22.53678,-0.39296 -22.98506,-1.5625 z"
     id="path4221" />
  <path
     style="fill:#000000"
     d="m 503.6292,274.25782 c 0,-2.77411 24.71643,-126.10825 27.85262,-138.98367 l 1.52238,-6.25 27.21735,-0.33696 c 30.92219,-0.38283 29.55961,-0.88252 27.19784,9.97405 -0.79123,3.6371 -7.31469,35.58165 -14.49659,70.9879 -7.1819,35.40626 -13.31835,65.07813 -13.63656,65.93751 -0.43888,1.18521 -7.22833,1.5625 -28.11782,1.5625 l -27.53922,0 0,-2.89133 z"
     id="path4219" />
  <path
     style="fill:#000000"
     d="M 667.10156 128.62891 C 663.79784 128.63701 660.36618 128.65328 656.82227 128.67969 L 610.64062 129.02344 L 606.69336 148.39844 C 584.92014 255.24479 581.09084 274.82511 581.75781 275.9043 C 582.22931 276.66723 592.90354 277.14844 609.35547 277.14844 C 640.88615 277.14844 636.89477 279.91374 641.83398 254.64844 C 643.64842 245.36719 645.70603 237.07031 646.4082 236.21094 C 647.3379 235.07308 653.50468 234.64265 669.0957 234.62695 C 683.12965 234.61275 693.50661 233.96976 699.21875 232.75977 C 726.69905 226.93869 746.84775 207.17746 751.46094 181.52344 L 753.0332 172.77344 L 751.12891 162.69727 C 751.12891 158.44578 744.51939 147.13705 739.13281 142.17188 C 731.89194 135.49747 722.85137 131.37021 711.75391 129.67383 C 707.05363 128.95534 690.22762 128.57217 667.10156 128.62891 z M 668.9707 163.42969 C 680.47615 163.47379 686.22636 165.17752 690.33203 169.75977 C 693.56582 173.36893 693.85507 174.41584 693.33789 180.65234 C 692.83092 186.76578 692.19151 188.08684 687.73047 192.24805 C 684.96136 194.83105 680.51475 197.54904 677.84961 198.28906 C 671.69568 199.99769 654.03093 200.05893 652.99023 198.375 C 651.85468 196.53763 657.20405 169.54766 659.36523 166.21094 C 660.93719 163.78394 662.25389 163.40399 668.9707 163.42969 z "
     id="path4302" />
  <path
     style="fill:#000000"
     d="m 752.80084,167.81644 23.45118,-0.33985 c 20.75413,-0.30106 23.54197,-0.1044 24.23632,1.70508 0.43153,1.12453 -3.75295,24.33977 -9.29882,51.58985 -5.54586,27.25006 -11.27195,54.70521 -10.76584,55.23458 0.50611,0.5294 15.07069,1.04087 30.1232,0.85523 l 27.36914,-0.33789 10.21093,-50.32227 c 5.61663,-27.6774 10.89912,-51.14902 11.73828,-52.16015 1.22621,-1.4775 6.22386,-1.90528 25.45704,-2.17774 l 23.93164,-0.33984 4.08789,-19.97266 c 2.24772,-10.98508 3.81206,-20.6882 3.47656,-21.5625 -0.4844,-1.26234 -16.43757,-1.58984 -77.48047,-1.58984 -71.94385,0 -76.94312,0.14019 -78.00586,2.1875 -0.62454,1.20312 -2.36458,8.375 -3.86719,15.9375 -1.50263,7.56249 -3.01953,14.73437 -3.36914,15.9375 z"
     id="path4300"
     inkscape:connector-curvature="0"
     sodipodi:nodetypes="cccsccccscccsssscc" />
</svg>
